<?xml version="1.0" encoding="UTF-8"?>
<svg id="Layer_2" data-name="Layer 2" xmlns="http://www.w3.org/2000/svg" viewBox="0 0 274.42 282.2">
  <defs>
    <style>
      .cls-1 {
        fill: #231f20;
      }
    </style>
  </defs>
  <path class="cls-1" d="m96.45,167.81l17.93-51.48h10.8l18.14,51.48h-10.87l-3.46-10.94h-18.58l-3.38,10.94h-10.58Zm21.02-33.77l-4.61,14.83h13.61l-4.61-14.83-2.09-7.92h-.14c-.86,3.46-1.58,6.1-2.16,7.92Z"/>
  <path class="cls-1" d="m75.4,167.81v-51.48h22.61c5.86,0,10.34,1.61,13.46,4.82,3.07,3.17,4.61,7.08,4.61,11.74,0,4.9-1.54,8.83-4.61,11.81-3.07,2.98-7.27,4.46-12.6,4.46h-12.67v18.65h-10.8Zm10.8-42.41v15.26h10.8c2.69,0,4.75-.68,6.19-2.05,1.44-1.37,2.16-3.25,2.16-5.65s-.72-4.26-2.16-5.58c-1.44-1.32-3.46-1.98-6.05-1.98h-10.94Z"/>
</svg>