<?xml version="1.0" encoding="UTF-8"?>
<svg id="Layer_1" data-name="Layer 1" xmlns="http://www.w3.org/2000/svg" width="100" height="77"">
  <defs>
    <style>
      .cls-1 {
        fill: #231f20;
      }
    </style>
  </defs>
  <path class="cls-1" d="m7.3,17.8L13.5,0h3.7l6.3,17.8h-3.8l-1.2-3.8h-6.4l-1.2,3.8h-3.7Zm7.3-11.7l-1.6,5.1h4.7l-1.6-5.1-.7-2.7h0c-.3,1.2-.5,2.1-.7,2.7Z"/>
  <path class="cls-1" d="m0,17.8V0h7.8c2,0,3.6.6,4.7,1.7,1.1,1.1,1.6,2.5,1.6,4.1s-.5,3.1-1.6,4.1c-1.1,1-2.5,1.5-4.4,1.5H3.7v6.5H0ZM3.7,3.1v5.3h3.7c.9,0,1.6-.2,2.1-.7.5-.5.7-1.1.7-2s-.2-1.5-.7-1.9c-.5-.5-1.2-.7-2.1-.7h-3.8Z"/>
</svg>