<?xml version="1.0" encoding="UTF-8"?>
<svg id="Layer_1" data-name="Layer 1" xmlns="http://www.w3.org/2000/svg" viewBox="0 0 46 34.8">
  <defs>
    <style>
      .cls-1 {
        fill: #231f20;
      }
    </style>
  </defs>
  <path class="cls-1" d="m14.2,34.8L26.4,0h7.3l12.3,34.8h-7.4l-2.3-7.4h-12.6l-2.3,7.4h-7.2Zm14.2-22.9l-3.1,10h9.2l-3.1-10-1.4-5.4h0c-.6,2.3-1.1,4.1-1.5,5.4Z"/>
  <path class="cls-1" d="m0,34.8V0h15.3c4,0,7,1.1,9.1,3.3,2.1,2.1,3.1,4.8,3.1,7.9s-1,6-3.1,8c-2.1,2-4.9,3-8.5,3H7.3v12.6H0ZM7.3,6.1v10.3h7.3c1.8,0,3.2-.5,4.2-1.4,1-.9,1.5-2.2,1.5-3.8s-.5-2.9-1.5-3.8c-1-.9-2.3-1.3-4.1-1.3h-7.4Z"/>
</svg>