<?xml version="1.0" encoding="UTF-8"?>
<svg version="1.1" xmlns="http://www.w3.org/2000/svg" width="192" height="146">
<path d="M0 0 C12.436875 -0.0825 24.87375 -0.165 37.6875 -0.25 C41.58908936 -0.28641602 45.49067871 -0.32283203 49.51049805 -0.36035156 C54.33947754 -0.37841797 54.33947754 -0.37841797 56.61262512 -0.3817749 C58.17293383 -0.38784716 59.73322587 -0.40176685 61.29341125 -0.42230225 C75.59808785 -0.60088276 88.12320733 1.25098146 100 10 C101.32 11.32 102.64 12.64 104 14 C105.65 9.38 107.3 4.76 109 0 C119.89 0 130.78 0 142 0 C143.36769531 3.92132813 144.73539063 7.84265625 146.14453125 11.8828125 C155.50822391 38.7225435 164.88280021 65.55837501 174.3125 92.375 C174.87803085 93.98474701 174.87803085 93.98474701 175.45498657 95.62701416 C176.5483818 98.73868762 177.6430891 101.84989608 178.73828125 104.9609375 C179.08353348 105.94325348 179.42878571 106.92556946 179.78450012 107.93765259 C181.66990648 113.28642571 183.58753533 118.62179376 185.54052734 123.94628906 C185.95852097 125.09038239 186.37651459 126.23447571 186.80717468 127.41323853 C187.61328826 129.61530247 188.42473887 131.81542217 189.24226379 134.01327515 C189.78399483 135.49484604 189.78399483 135.49484604 190.33666992 137.00634766 C190.65842697 137.8760318 190.98018402 138.74571594 191.31169128 139.64175415 C192 142 192 142 192 146 C181.77 146 171.54 146 161 146 C156.84772601 136.31136068 154.06911291 126.08422813 151 116 C133.84 115.67 116.68 115.34 99 115 C98.67 117.31 98.34 119.62 98 122 C97.43620306 123.99333794 96.82012705 125.9726428 96.15234375 127.93359375 C95.82999756 128.89064209 95.50765137 129.84769043 95.17553711 130.83374023 C94.76698486 132.02298096 94.35843262 133.21222168 93.9375 134.4375 C92.638125 138.253125 91.33875 142.06875 90 146 C79.77 146 69.54 146 59 146 C60.97736729 138.74965328 63.02303241 131.77161452 65.57421875 124.73828125 C65.86607056 123.9237146 66.15792236 123.10914795 66.45861816 122.26989746 C67.53034982 119.28245767 68.60932584 116.29762072 69.6875 113.3125 C72.100625 106.609375 74.51375 99.90625 77 93 C61.82 93 46.64 93 31 93 C31 110.49 31 127.98 31 146 C20.77 146 10.54 146 0 146 C0 97.82 0 49.64 0 0 Z M31 26 C31 39.86 31 53.72 31 68 C36.94 68.061875 42.88 68.12375 49 68.1875 C50.85882813 68.21481201 52.71765625 68.24212402 54.6328125 68.27026367 C56.13020176 68.27903744 57.62759825 68.28667926 59.125 68.29296875 C59.88296875 68.30831665 60.6409375 68.32366455 61.421875 68.33947754 C67.51801707 68.34242348 73.15401648 67.31854256 78.0234375 63.3515625 C78.46945313 62.78179687 78.91546875 62.21203125 79.375 61.625 C79.83648437 61.06039062 80.29796875 60.49578125 80.7734375 59.9140625 C84.77773306 53.66532103 84.8292159 47.21854259 84 40 C82.01193901 34.20225934 78.21947849 30.97731079 73.0625 27.91015625 C68.15799139 25.74585605 63.12802385 25.8653995 57.85546875 25.90234375 C57.17246704 25.90335083 56.48946533 25.90435791 55.7857666 25.90539551 C53.2529938 25.91059743 50.72024508 25.92455855 48.1875 25.9375 C39.6796875 25.9684375 39.6796875 25.9684375 31 26 Z M125 30 C124.66790527 31.11221924 124.33581055 32.22443848 123.99365234 33.37036133 C122.73147323 37.59606887 121.46731672 41.82118291 120.20263672 46.04614258 C119.66110246 47.85620885 119.12006683 49.66642439 118.57958984 51.47680664 C115.41822712 62.0647226 112.21347612 72.63336996 108.80917358 83.14619446 C107.48114466 86.99479599 107.48114466 86.99479599 107 91 C118.88 91 130.76 91 143 91 C141.77889062 84.89445311 140.66958864 79.50752294 138.79296875 73.69140625 C138.3689678 72.36198238 137.94497728 71.03255518 137.52099609 69.703125 C137.30272156 69.02572266 137.08444702 68.34832031 136.85955811 67.65039062 C132.84977905 55.19316405 129.11338803 42.71573215 126 30 C125.67 30 125.34 30 125 30 Z " fill="#000000" transform="translate(0,0)"/>
</svg>
