<?xml version="1.0" encoding="UTF-8"?>
<svg version="1.1" xmlns="http://www.w3.org/2000/svg" width="50" height="38">
<path d="M0 0 C5.011875 -0.061875 5.011875 -0.061875 10.125 -0.125 C11.68758545 -0.15231201 11.68758545 -0.15231201 13.28173828 -0.18017578 C18.25991345 -0.20985907 22.33908255 0.00694776 27 2 C27.33 1.34 27.66 0.68 28 0 C30.97 0 33.94 0 37 0 C40.52611227 9.50381148 44.03589818 19.01328731 47.4375 28.5625 C47.69611816 29.28171631 47.95473633 30.00093262 48.22119141 30.74194336 C50 35.76564508 50 35.76564508 50 38 C47.03 38 44.06 38 41 38 C39.74335022 35.09399739 39 33.20395416 39 30 C34.71 30 30.42 30 26 30 C25.67 31.98 25.34 33.96 25 36 C24.67 36.66 24.34 37.32 24 38 C21.03 38 18.06 38 15 38 C16.32 33.71 17.64 29.42 19 25 C15.7 25 12.4 25 9 25 C9 29.29 9 33.58 9 38 C6.03 38 3.06 38 0 38 C0 25.46 0 12.92 0 0 Z M9 8 C9 11.3 9 14.6 9 18 C15.25586848 18.63942151 15.25586848 18.63942151 20.5625 16 C21.2740625 15.01 21.2740625 15.01 22 14 C20.91215032 10.75016865 20.91215032 10.75016865 19 8 C15.66381769 7.85742811 12.34024394 7.95771843 9 8 Z M32 10 C30.68 14.62 29.36 19.24 28 24 C30.97 24 33.94 24 37 24 C35.68 19.38 34.36 14.76 33 10 C32.67 10 32.34 10 32 10 Z " fill="#000000" transform="translate(0,0)"/>
</svg>
